# xmcd CD database file
#
# Track frame offsets:
#	150
#	12845
#	23222
#	37260
#	49712
#	63177
#	76750
#	89512
#	104732
#	118975
#	134282
#	146020
#	160697
#	172092
#	186100
#	201937
#
# Disc length: 2875 seconds
#
# Revision: 2
# Processed by: cddbd v1.5.2PL0 Copyright (c) Steve Scherf et al.
# Submitted via: CDex 1.51
#
DISCID=e20b3910
DTITLE=John Lee Hooker - The Complete 50's Chess Recordings (Disc-1)
DYEAR=1998
DGENRE=Blues
TTITLE0=Mad Man Blues
TTITLE1=Hey Boogie
TTITLE2=Louise
TTITLE3=High Priced Woman
TTITLE4=Union Station Blues
TTITLE5=Ground Hog Blues
TTITLE6=Leave My Wife Alone
TTITLE7=Rambin' By Myself
TTITLE8=Dreamin' Blues
TTITLE9=Just Me And My Telephone
TTITLE10=Walkin' The Boogie
TTITLE11=Sugar Mama
TTITLE12=Please Don't Go
TTITLE13=I Don't Want Your Money
TTITLE14=Hey Baby
TTITLE15=Bluebird
EXTD=YEAR: 1998
EXTT0=
EXTT1=
EXTT2=
EXTT3=
EXTT4=
EXTT5=
EXTT6=
EXTT7=
EXTT8=
EXTT9=
EXTT10=
EXTT11=
EXTT12=
EXTT13=
EXTT14=
EXTT15=
PLAYORDER=
